<svg xmlns="http://www.w3.org/2000/svg" version="1.2" viewBox="0 0 300 42" width="300" height="42">
	<title>Automatr Logo-ai</title>
	<style>
		.s0 { fill: #0761d0 } 
	</style>
	<g id="Layer 1">
		<g id="&lt;Group&gt;">
			<g id="&lt;Group&gt;">
				<g id="&lt;Group&gt;">
					<path id="&lt;Path&gt;" class="s0" d="m290.4 35.1c0-2.2 1.8-4 4-4h0.2c2.2 0 4 1.8 4 4v0.8c0 2.2-1.8 4-4 4h-0.2c-2.2 0-4-1.8-4-4z" fill="#000000"/>
				</g>
				<g id="&lt;Group&gt;">
					<path id="&lt;Compound Path&gt;" fill-rule="evenodd" class="s0" d="m120.5 39.9c-9.3 0-16.8-7.6-16.8-17 0-9.4 7.5-16.9 16.8-16.9 9.3 0 16.8 7.5 16.8 16.9 0 9.4-7.5 17-16.8 17zm8-17c0-4.4-3.6-8.1-8-8.1-4.4 0-8 3.7-8 8.1 0 4.5 3.6 8.1 8 8.1 4.4 0 8-3.6 8-8.1z" fill="#000000"/>
				</g>
				<g id="&lt;Group&gt;">
					<path id="&lt;Path&gt;" class="s0" d="m73.4 7.4v14.5c0 9.7-6.6 17.9-15.8 18-10.1 0.2-17.8-7.1-17.8-18v-14.5c0-0.7 0.5-1.2 1.2-1.2h6.3c0.6 0 1.2 0.5 1.2 1.2v15.5c0 4.7 3.6 8.5 8.1 8.5 4.5 0 8.1-3.8 8.1-8.5v-15.5c0-0.7 0.6-1.2 1.3-1.2h6.2c0.7 0 1.2 0.5 1.2 1.2z" fill="#000000"/>
				</g>
				<g id="&lt;Group&gt;">
					<path id="&lt;Path&gt;" class="s0" d="m264.9 38.6c0 0.7-0.6 1.3-1.3 1.3h-1.6c-10.7 0-17.9-7.8-17.7-18v-18.5c0-0.7 0.5-1.3 1.2-1.3h6.3c0.7 0 1.3 0.6 1.3 1.3v7.2h9.8c0.7 0 1.3 0.6 1.3 1.3v6.3c0 0.7-0.6 1.3-1.3 1.3h-9.8v2.5c0 0 0 0.6 0.1 1.5 0.6 4.9 3.5 7.5 8.8 7.5h1.6c0.7 0 1.3 0.6 1.3 1.3z" fill="#000000"/>
				</g>
				<g id="&lt;Group&gt;">
					<path id="&lt;Path&gt;" class="s0" d="m98.9 38.6c0 0.7-0.6 1.3-1.3 1.3h-1.6c-10.8 0-18-7.8-17.7-18v-18.5c0-0.7 0.5-1.3 1.2-1.3h6.3c0.7 0 1.2 0.6 1.2 1.3v7.2h9.9c0.7 0 1.3 0.6 1.3 1.3v6.3c0 0.7-0.6 1.3-1.3 1.3h-9.9v2.5c0 0 0 0.6 0.1 1.5 0.7 4.9 3.5 7.5 8.9 7.5h1.6c0.7 0 1.3 0.6 1.3 1.3z" fill="#000000"/>
				</g>
				<g id="&lt;Group&gt;">
					<path id="&lt;Path&gt;" class="s0" d="m290.3 14.7c0 0.7-0.5 1.2-1.2 1.2h-1.6c-9.1 0-9 8.4-9 9v13.7c0 0.7-0.5 1.3-1.2 1.3h-6.3c-0.7 0-1.3-0.6-1.3-1.3v-13.6c-0.2-10.2 7-18 17.8-18h1.6c0.7 0 1.2 0.6 1.2 1.3z" fill="#000000"/>
				</g>
				<g id="&lt;Group&gt;">
					<path id="&lt;Path&gt;" class="s0" d="m200.8 24.1v14.5c0 0.7-0.5 1.3-1.2 1.3h-6.3c-0.6 0-1.2-0.6-1.2-1.3v-15.5c0-4.7-3.6-8.5-8.1-8.5-4.5 0-8.1 3.8-8.1 8.5v15.5c0 0.7-0.6 1.3-1.3 1.3h-6.2c-0.7 0-1.3-0.6-1.3-1.3v-15.5c0-4.7-3.6-8.5-8.1-8.5-4.5 0-8.1 3.8-8.1 8.5v15.5c0 0.7-0.5 1.3-1.2 1.3h-6.3c-0.7 0-1.2-0.6-1.2-1.3v-14.5c0-9.7 6.6-17.9 15.9-17.9 5.4-0.2 10.1 1.9 13.3 5.5 2.9-3.4 6.9-5.5 11.6-5.5 10.1-0.3 17.8 7 17.8 17.9z" fill="#000000"/>
				</g>
			</g>
			<g id="&lt;Group&gt;">
				<path id="&lt;Compound Path&gt;" fill-rule="evenodd" class="s0" d="m34.9 23.1q0 0 0 0v15.3c0 0.7-0.5 1.2-1.2 1.2h-6.2c-0.6 0-1.2-0.5-1.2-1.2v-0.8c-2.4 1.4-5.2 2.2-8.1 2.2-9.3 0-16.8-7.6-16.8-17 0-9.4 7.5-16.9 16.8-16.9 9.2 0 16.7 7.5 16.7 16.9q0 0.2 0 0.3zm-8.8-0.3c0-4.5-3.5-8.1-7.9-8.1-4.5 0-8 3.6-8 8.1 0 4.5 3.5 8.1 8 8.1 4.4 0 7.9-3.6 7.9-8.1z" fill="#000000"/>
			</g>
			<g id="&lt;Group&gt;">
				<path id="&lt;Compound Path&gt;" fill-rule="evenodd" class="s0" d="m239.2 23.1q0 0 0 0v15.3c0 0.7-0.6 1.2-1.3 1.2h-6.1c-0.7 0-1.3-0.5-1.3-1.2v-0.8c-2.4 1.4-5.1 2.2-8.1 2.2-9.3 0-16.8-7.6-16.8-17 0-9.4 7.5-16.9 16.8-16.9 9.3 0 16.8 7.5 16.8 16.9q0 0.2 0 0.3zm-8.8-0.3c0-4.5-3.6-8.1-8-8.1-4.4 0-8 3.6-8 8.1 0 4.5 3.6 8.1 8 8.1 4.4 0 8-3.6 8-8.1z" fill="#000000"/>
			</g>
		</g>
	</g>
</svg>